<svg width="312" height="125" viewBox="0 0 312 125" fill="none" xmlns="http://www.w3.org/2000/svg">
<path d="M30.51 1.46L47.93 48H35.32L32.33 39.485H16.21L13.22 48H0.74L18.16 1.46H30.51ZM29.535 30.775L27.325 24.47C26.025 20.6567 25.0283 17.1683 24.335 14.005C23.4683 17.385 22.4067 20.9167 21.15 24.6L19.005 30.775H29.535ZM87.5653 15.435H75.9953C75.8219 11.6217 73.3303 9.715 68.5203 9.715C64.3169 9.715 62.2153 11.08 62.2153 13.81C62.2153 15.0667 62.7786 15.9767 63.9053 16.54C64.8586 17.0167 67.9136 17.905 73.0703 19.205C77.9669 20.4617 81.5203 21.7833 83.7303 23.17C87.5436 25.51 89.4503 29.02 89.4503 33.7C89.4503 38.8133 87.4353 42.7567 83.4053 45.53C79.8953 47.9567 75.2803 49.17 69.5603 49.17C62.6269 49.17 57.3403 47.5017 53.7003 44.165C50.4936 41.2617 48.8469 37.3183 48.7603 32.335H60.9803C61.2403 37.275 64.2519 39.745 70.0153 39.745C74.7386 39.745 77.1003 38.1633 77.1003 35C77.1003 33.5267 76.4719 32.4433 75.2153 31.75C74.0019 31.0133 70.9469 29.9517 66.0503 28.565C60.1136 26.875 56.1269 25.1633 54.0903 23.43C51.7069 21.3933 50.5153 18.4467 50.5153 14.59C50.5153 9.99667 52.4219 6.37833 56.2353 3.735C59.5719 1.43833 63.8403 0.289998 69.0403 0.289998C75.2369 0.289998 79.9603 1.785 83.2103 4.775C86.0269 7.375 87.4786 10.9283 87.5653 15.435ZM138.384 29.865C138.081 34.7183 136.412 38.9 133.379 42.41C129.522 46.9167 124.019 49.17 116.869 49.17C109.242 49.17 103.327 46.5267 99.1241 41.24C95.5274 36.7767 93.7291 31.2517 93.7291 24.665C93.7291 17.8617 95.7874 12.1417 99.9041 7.505C104.194 2.695 109.979 0.289998 117.259 0.289998C123.326 0.289998 128.374 2.175 132.404 5.945C135.871 9.195 137.756 13.1817 138.059 17.905H126.229C125.752 15.7817 125.016 14.1783 124.019 13.095C122.329 11.2317 120.011 10.3 117.064 10.3C113.424 10.3 110.607 11.7517 108.614 14.655C106.924 17.2117 106.079 20.57 106.079 24.73C106.079 29.54 107.162 33.2233 109.329 35.78C111.236 38.0333 113.771 39.16 116.934 39.16C120.184 39.16 122.654 37.9683 124.344 35.585C125.254 34.285 125.882 32.3783 126.229 29.865H138.384ZM181.485 1.46V11.47H156.395V19.205H179.34V28.76H156.395V37.99H182.07V48H144.24V1.46H181.485ZM222.986 37.535V48H188.991V1.46H201.146V37.535H222.986ZM263.103 37.535V48H229.108V1.46H241.263V37.535H263.103ZM294.446 1.46L311.866 48H299.256L296.266 39.485H280.146L277.156 48H264.676L282.096 1.46H294.446ZM293.471 30.775L291.261 24.47C289.961 20.6567 288.964 17.1683 288.271 14.005C287.404 17.385 286.342 20.9167 285.086 24.6L282.941 30.775H293.471ZM17.445 76.46V123H5.29V76.46H17.445ZM66.3484 76.46V123H54.5184L41.9734 101.875L39.3084 97.13C38.8317 96.35 38.1817 95.0283 37.3584 93.165C37.6617 96.5883 37.8134 100.532 37.8134 104.995V123H25.9834V76.46H38.2684L49.8384 96.155C52.0917 100.055 53.825 103.305 55.0384 105.905C54.6917 101.355 54.5184 97.3467 54.5184 93.88V76.46H66.3484ZM109.182 76.46V86.47H86.9518V95.57H106.192V105.06H86.9518V123H74.7968V76.46H109.182ZM135.785 75.29C143.022 75.29 148.785 77.8467 153.075 82.96C156.758 87.4233 158.6 93.0133 158.6 99.73C158.6 107.487 156.217 113.64 151.45 118.19C147.29 122.177 142.068 124.17 135.785 124.17C128.418 124.17 122.568 121.613 118.235 116.5C114.508 112.08 112.645 106.49 112.645 99.73C112.645 91.9733 114.942 85.9067 119.535 81.53C123.955 77.37 129.372 75.29 135.785 75.29ZM135.72 85.3C132.21 85.3 129.48 86.7733 127.53 89.72C125.84 92.2333 124.995 95.5483 124.995 99.665C124.995 104.475 126.078 108.18 128.245 110.78C130.152 113.033 132.665 114.16 135.785 114.16C139.078 114.16 141.657 112.882 143.52 110.325C145.383 107.725 146.315 104.107 146.315 99.47C146.315 94.7467 145.232 91.1283 143.065 88.615C141.202 86.405 138.753 85.3 135.72 85.3ZM200.807 90.435H189.237C189.064 86.6217 186.572 84.715 181.762 84.715C177.559 84.715 175.457 86.08 175.457 88.81C175.457 90.0667 176.021 90.9767 177.147 91.54C178.101 92.0167 181.156 92.905 186.312 94.205C191.209 95.4617 194.762 96.7833 196.972 98.17C200.786 100.51 202.692 104.02 202.692 108.7C202.692 113.813 200.677 117.757 196.647 120.53C193.137 122.957 188.522 124.17 182.802 124.17C175.869 124.17 170.582 122.502 166.942 119.165C163.736 116.262 162.089 112.318 162.002 107.335H174.222C174.482 112.275 177.494 114.745 183.257 114.745C187.981 114.745 190.342 113.163 190.342 110C190.342 108.527 189.714 107.443 188.457 106.75C187.244 106.013 184.189 104.952 179.292 103.565C173.356 101.875 169.369 100.163 167.332 98.43C164.949 96.3933 163.757 93.4467 163.757 89.59C163.757 84.9967 165.664 81.3783 169.477 78.735C172.814 76.4383 177.082 75.29 182.282 75.29C188.479 75.29 193.202 76.785 196.452 79.775C199.269 82.375 200.721 85.9283 200.807 90.435ZM246.231 76.46V86.47H221.141V94.205H244.086V103.76H221.141V112.99H246.816V123H208.986V76.46H246.231ZM296.377 104.865C296.074 109.718 294.406 113.9 291.372 117.41C287.516 121.917 282.012 124.17 274.862 124.17C267.236 124.17 261.321 121.527 257.117 116.24C253.521 111.777 251.722 106.252 251.722 99.665C251.722 92.8617 253.781 87.1417 257.897 82.505C262.187 77.695 267.972 75.29 275.252 75.29C281.319 75.29 286.367 77.175 290.397 80.945C293.864 84.195 295.749 88.1817 296.052 92.905H284.222C283.746 90.7817 283.009 89.1783 282.012 88.095C280.322 86.2317 278.004 85.3 275.057 85.3C271.417 85.3 268.601 86.7517 266.607 89.655C264.917 92.2117 264.072 95.57 264.072 99.73C264.072 104.54 265.156 108.223 267.322 110.78C269.229 113.033 271.764 114.16 274.927 114.16C278.177 114.16 280.647 112.968 282.337 110.585C283.247 109.285 283.876 107.378 284.222 104.865H296.377Z" fill="url(#paint0_linear_167_92)"/>
<defs>
<linearGradient id="paint0_linear_167_92" x1="1" y1="63" x2="372" y2="63" gradientUnits="userSpaceOnUse">
<stop stop-color="white"/>
<stop offset="1" stop-color="#9C9C9C"/>
</linearGradient>
</defs>
</svg>
