<svg width="330" height="125" viewBox="0 0 330 125" fill="none" xmlns="http://www.w3.org/2000/svg">
<path d="M30.51 1.46L47.93 48H35.32L32.33 39.485H16.21L13.22 48H0.74L18.16 1.46H30.51ZM29.535 30.775L27.325 24.47C26.025 20.6567 25.0283 17.1683 24.335 14.005C23.4683 17.385 22.4067 20.9167 21.15 24.6L19.005 30.775H29.535ZM87.5653 15.435H75.9953C75.8219 11.6217 73.3303 9.715 68.5203 9.715C64.3169 9.715 62.2153 11.08 62.2153 13.81C62.2153 15.0667 62.7786 15.9767 63.9053 16.54C64.8586 17.0167 67.9136 17.905 73.0703 19.205C77.9669 20.4617 81.5203 21.7833 83.7303 23.17C87.5436 25.51 89.4503 29.02 89.4503 33.7C89.4503 38.8133 87.4353 42.7567 83.4053 45.53C79.8953 47.9567 75.2803 49.17 69.5603 49.17C62.6269 49.17 57.3403 47.5017 53.7003 44.165C50.4936 41.2617 48.8469 37.3183 48.7603 32.335H60.9803C61.2403 37.275 64.2519 39.745 70.0153 39.745C74.7386 39.745 77.1003 38.1633 77.1003 35C77.1003 33.5267 76.4719 32.4433 75.2153 31.75C74.0019 31.0133 70.9469 29.9517 66.0503 28.565C60.1136 26.875 56.1269 25.1633 54.0903 23.43C51.7069 21.3933 50.5153 18.4467 50.5153 14.59C50.5153 9.99667 52.4219 6.37833 56.2353 3.735C59.5719 1.43833 63.8403 0.289998 69.0403 0.289998C75.2369 0.289998 79.9603 1.785 83.2103 4.775C86.0269 7.375 87.4786 10.9283 87.5653 15.435ZM138.384 29.865C138.081 34.7183 136.412 38.9 133.379 42.41C129.522 46.9167 124.019 49.17 116.869 49.17C109.242 49.17 103.327 46.5267 99.1241 41.24C95.5274 36.7767 93.7291 31.2517 93.7291 24.665C93.7291 17.8617 95.7874 12.1417 99.9041 7.505C104.194 2.695 109.979 0.289998 117.259 0.289998C123.326 0.289998 128.374 2.175 132.404 5.945C135.871 9.195 137.756 13.1817 138.059 17.905H126.229C125.752 15.7817 125.016 14.1783 124.019 13.095C122.329 11.2317 120.011 10.3 117.064 10.3C113.424 10.3 110.607 11.7517 108.614 14.655C106.924 17.2117 106.079 20.57 106.079 24.73C106.079 29.54 107.162 33.2233 109.329 35.78C111.236 38.0333 113.771 39.16 116.934 39.16C120.184 39.16 122.654 37.9683 124.344 35.585C125.254 34.285 125.882 32.3783 126.229 29.865H138.384ZM181.485 1.46V11.47H156.395V19.205H179.34V28.76H156.395V37.99H182.07V48H144.24V1.46H181.485ZM222.986 37.535V48H188.991V1.46H201.146V37.535H222.986ZM263.103 37.535V48H229.108V1.46H241.263V37.535H263.103ZM294.446 1.46L311.866 48H299.256L296.266 39.485H280.146L277.156 48H264.676L282.096 1.46H294.446ZM293.471 30.775L291.261 24.47C289.961 20.6567 288.964 17.1683 288.271 14.005C287.404 17.385 286.342 20.9167 285.086 24.6L282.941 30.775H293.471ZM40.91 90.435H29.34C29.1667 86.6217 26.675 84.715 21.865 84.715C17.6617 84.715 15.56 86.08 15.56 88.81C15.56 90.0667 16.1233 90.9767 17.25 91.54C18.2033 92.0167 21.2583 92.905 26.415 94.205C31.3117 95.4617 34.865 96.7833 37.075 98.17C40.8883 100.51 42.795 104.02 42.795 108.7C42.795 113.813 40.78 117.757 36.75 120.53C33.24 122.957 28.625 124.17 22.905 124.17C15.9717 124.17 10.685 122.502 7.045 119.165C3.83833 116.262 2.19167 112.318 2.105 107.335H14.325C14.585 112.275 17.5967 114.745 23.36 114.745C28.0833 114.745 30.445 113.163 30.445 110C30.445 108.527 29.8167 107.443 28.56 106.75C27.3467 106.013 24.2917 104.952 19.395 103.565C13.4583 101.875 9.47167 100.163 7.435 98.43C5.05167 96.3933 3.86 93.4467 3.86 89.59C3.86 84.9967 5.76667 81.3783 9.58 78.735C12.9167 76.4383 17.185 75.29 22.385 75.29C28.5817 75.29 33.305 76.785 36.555 79.775C39.3717 82.375 40.8233 85.9283 40.91 90.435ZM85.7488 76.46V86.925H71.8388V123H59.7488V86.925H45.9038V76.46H85.7488ZM116.457 76.46L133.877 123H121.267L118.277 114.485H102.157L99.1673 123H86.6873L104.107 76.46H116.457ZM115.482 105.775L113.272 99.47C111.972 95.6567 110.976 92.1683 110.282 89.005C109.416 92.385 108.354 95.9167 107.097 99.6L104.952 105.775H115.482ZM172.278 76.46V86.47H150.048V95.57H169.288V105.06H150.048V123H137.893V76.46H172.278ZM212.141 76.46V86.47H189.911V95.57H209.151V105.06H189.911V123H177.756V76.46H212.141ZM229.774 76.46V123H217.619V76.46H229.774ZM278.677 76.46V123H266.847L254.302 101.875L251.637 97.13C251.161 96.35 250.511 95.0283 249.687 93.165C249.991 96.5883 250.142 100.532 250.142 104.995V123H238.312V76.46H250.597L262.167 96.155C264.421 100.055 266.154 103.305 267.367 105.905C267.021 101.355 266.847 97.3467 266.847 93.88V76.46H278.677ZM329.896 97.715V123H322.096C321.663 121.007 321.446 119.577 321.446 118.71C321.446 118.623 321.446 118.515 321.446 118.385C321.446 118.212 321.446 118.06 321.446 117.93C318.153 122.09 313.494 124.17 307.471 124.17C300.321 124.17 294.666 121.635 290.506 116.565C286.909 112.145 285.111 106.577 285.111 99.86C285.111 92.06 287.581 85.8633 292.521 81.27C296.811 77.2833 302.206 75.29 308.706 75.29C314.599 75.29 319.496 77.0667 323.396 80.62C326.776 83.6967 328.704 87.575 329.181 92.255H317.416C316.376 87.6183 313.408 85.3 308.511 85.3C304.958 85.3 302.228 86.5783 300.321 89.135C298.414 91.6483 297.461 95.2667 297.461 99.99C297.461 109.437 301.318 114.16 309.031 114.16C314.708 114.16 317.958 111.56 318.781 106.36H310.331V97.715H329.896Z" fill="url(#paint0_linear_571_200)"/>
<defs>
<linearGradient id="paint0_linear_571_200" x1="1" y1="63" x2="332.5" y2="63" gradientUnits="userSpaceOnUse">
<stop/>
<stop offset="1" stop-color="#6C6C6C"/>
</linearGradient>
</defs>
</svg>
