<svg width="312" height="125" viewBox="0 0 312 125" fill="none" xmlns="http://www.w3.org/2000/svg">
<path d="M30.51 1.46L47.93 48H35.32L32.33 39.485H16.21L13.22 48H0.74L18.16 1.46H30.51ZM29.535 30.775L27.325 24.47C26.025 20.6567 25.0283 17.1683 24.335 14.005C23.4683 17.385 22.4067 20.9167 21.15 24.6L19.005 30.775H29.535ZM87.5653 15.435H75.9953C75.8219 11.6217 73.3303 9.715 68.5203 9.715C64.3169 9.715 62.2153 11.08 62.2153 13.81C62.2153 15.0667 62.7786 15.9767 63.9053 16.54C64.8586 17.0167 67.9136 17.905 73.0703 19.205C77.9669 20.4617 81.5203 21.7833 83.7303 23.17C87.5436 25.51 89.4503 29.02 89.4503 33.7C89.4503 38.8133 87.4353 42.7567 83.4053 45.53C79.8953 47.9567 75.2803 49.17 69.5603 49.17C62.6269 49.17 57.3403 47.5017 53.7003 44.165C50.4936 41.2617 48.8469 37.3183 48.7603 32.335H60.9803C61.2403 37.275 64.2519 39.745 70.0153 39.745C74.7386 39.745 77.1003 38.1633 77.1003 35C77.1003 33.5267 76.4719 32.4433 75.2153 31.75C74.0019 31.0133 70.9469 29.9517 66.0503 28.565C60.1136 26.875 56.1269 25.1633 54.0903 23.43C51.7069 21.3933 50.5153 18.4467 50.5153 14.59C50.5153 9.99667 52.4219 6.37833 56.2353 3.735C59.5719 1.43833 63.8403 0.289998 69.0403 0.289998C75.2369 0.289998 79.9603 1.785 83.2103 4.775C86.0269 7.375 87.4786 10.9283 87.5653 15.435ZM138.384 29.865C138.081 34.7183 136.412 38.9 133.379 42.41C129.522 46.9167 124.019 49.17 116.869 49.17C109.242 49.17 103.327 46.5267 99.1241 41.24C95.5274 36.7767 93.7291 31.2517 93.7291 24.665C93.7291 17.8617 95.7874 12.1417 99.9041 7.505C104.194 2.695 109.979 0.289998 117.259 0.289998C123.326 0.289998 128.374 2.175 132.404 5.945C135.871 9.195 137.756 13.1817 138.059 17.905H126.229C125.752 15.7817 125.016 14.1783 124.019 13.095C122.329 11.2317 120.011 10.3 117.064 10.3C113.424 10.3 110.607 11.7517 108.614 14.655C106.924 17.2117 106.079 20.57 106.079 24.73C106.079 29.54 107.162 33.2233 109.329 35.78C111.236 38.0333 113.771 39.16 116.934 39.16C120.184 39.16 122.654 37.9683 124.344 35.585C125.254 34.285 125.882 32.3783 126.229 29.865H138.384ZM181.485 1.46V11.47H156.395V19.205H179.34V28.76H156.395V37.99H182.07V48H144.24V1.46H181.485ZM222.986 37.535V48H188.991V1.46H201.146V37.535H222.986ZM263.103 37.535V48H229.108V1.46H241.263V37.535H263.103ZM294.446 1.46L311.866 48H299.256L296.266 39.485H280.146L277.156 48H264.676L282.096 1.46H294.446ZM293.471 30.775L291.261 24.47C289.961 20.6567 288.964 17.1683 288.271 14.005C287.404 17.385 286.342 20.9167 285.086 24.6L282.941 30.775H293.471ZM42.535 76.46V86.47H17.445V94.205H40.39V103.76H17.445V112.99H43.12V123H5.29V76.46H42.535ZM90.406 76.46V123H78.576L66.031 101.875L63.366 97.13C62.8893 96.35 62.2393 95.0283 61.416 93.165C61.7193 96.5883 61.871 100.532 61.871 104.995V123H50.041V76.46H62.326L73.896 96.155C76.1493 100.055 77.8826 103.305 79.096 105.905C78.7493 101.355 78.576 97.3467 78.576 93.88V76.46H90.406ZM141.624 97.715V123H133.824C133.391 121.007 133.174 119.577 133.174 118.71C133.174 118.623 133.174 118.515 133.174 118.385C133.174 118.212 133.174 118.06 133.174 117.93C129.881 122.09 125.223 124.17 119.199 124.17C112.049 124.17 106.394 121.635 102.234 116.565C98.6378 112.145 96.8395 106.577 96.8395 99.86C96.8395 92.06 99.3095 85.8633 104.249 81.27C108.539 77.2833 113.934 75.29 120.434 75.29C126.328 75.29 131.224 77.0667 135.124 80.62C138.504 83.6967 140.433 87.575 140.909 92.255H129.144C128.104 87.6183 125.136 85.3 120.239 85.3C116.686 85.3 113.956 86.5783 112.049 89.135C110.143 91.6483 109.189 95.2667 109.189 99.99C109.189 109.437 113.046 114.16 120.759 114.16C126.436 114.16 129.686 111.56 130.509 106.36H122.059V97.715H141.624ZM174.729 76.46L192.149 123H179.539L176.549 114.485H160.429L157.439 123H144.959L162.379 76.46H174.729ZM173.754 105.775L171.544 99.47C170.244 95.6567 169.247 92.1683 168.554 89.005C167.687 92.385 166.625 95.9167 165.369 99.6L163.224 105.775H173.754ZM238.934 97.715V123H231.134C230.701 121.007 230.484 119.577 230.484 118.71C230.484 118.623 230.484 118.515 230.484 118.385C230.484 118.212 230.484 118.06 230.484 117.93C227.191 122.09 222.532 124.17 216.509 124.17C209.359 124.17 203.704 121.635 199.544 116.565C195.947 112.145 194.149 106.577 194.149 99.86C194.149 92.06 196.619 85.8633 201.559 81.27C205.849 77.2833 211.244 75.29 217.744 75.29C223.637 75.29 228.534 77.0667 232.434 80.62C235.814 83.6967 237.742 87.575 238.219 92.255H226.454C225.414 87.6183 222.446 85.3 217.549 85.3C213.996 85.3 211.266 86.5783 209.359 89.135C207.452 91.6483 206.499 95.2667 206.499 99.99C206.499 109.437 210.356 114.16 218.069 114.16C223.746 114.16 226.996 111.56 227.819 106.36H219.369V97.715H238.934ZM284.063 76.46V86.47H258.973V94.205H281.918V103.76H258.973V112.99H284.648V123H246.818V76.46H284.063Z" fill="url(#paint0_linear_571_279)"/>
<defs>
<linearGradient id="paint0_linear_571_279" x1="1" y1="63" x2="332.5" y2="63" gradientUnits="userSpaceOnUse">
<stop/>
<stop offset="1" stop-color="#6C6C6C"/>
</linearGradient>
</defs>
</svg>
