<svg width="378" height="200" viewBox="0 0 378 200" fill="none" xmlns="http://www.w3.org/2000/svg">
<path d="M30.51 1.46L47.93 48H35.32L32.33 39.485H16.21L13.22 48H0.74L18.16 1.46H30.51ZM29.535 30.775L27.325 24.47C26.025 20.6567 25.0283 17.1683 24.335 14.005C23.4683 17.385 22.4067 20.9167 21.15 24.6L19.005 30.775H29.535ZM87.5653 15.435H75.9953C75.8219 11.6217 73.3303 9.715 68.5203 9.715C64.3169 9.715 62.2153 11.08 62.2153 13.81C62.2153 15.0667 62.7786 15.9767 63.9053 16.54C64.8586 17.0167 67.9136 17.905 73.0703 19.205C77.9669 20.4617 81.5203 21.7833 83.7303 23.17C87.5436 25.51 89.4503 29.02 89.4503 33.7C89.4503 38.8133 87.4353 42.7567 83.4053 45.53C79.8953 47.9567 75.2803 49.17 69.5603 49.17C62.6269 49.17 57.3403 47.5017 53.7003 44.165C50.4936 41.2617 48.8469 37.3183 48.7603 32.335H60.9803C61.2403 37.275 64.2519 39.745 70.0153 39.745C74.7386 39.745 77.1003 38.1633 77.1003 35C77.1003 33.5267 76.4719 32.4433 75.2153 31.75C74.0019 31.0133 70.9469 29.9517 66.0503 28.565C60.1136 26.875 56.1269 25.1633 54.0903 23.43C51.7069 21.3933 50.5153 18.4467 50.5153 14.59C50.5153 9.99667 52.4219 6.37833 56.2353 3.735C59.5719 1.43833 63.8403 0.289998 69.0403 0.289998C75.2369 0.289998 79.9603 1.785 83.2103 4.775C86.0269 7.375 87.4786 10.9283 87.5653 15.435ZM138.384 29.865C138.081 34.7183 136.412 38.9 133.379 42.41C129.522 46.9167 124.019 49.17 116.869 49.17C109.242 49.17 103.327 46.5267 99.1241 41.24C95.5274 36.7767 93.7291 31.2517 93.7291 24.665C93.7291 17.8617 95.7874 12.1417 99.9041 7.505C104.194 2.695 109.979 0.289998 117.259 0.289998C123.326 0.289998 128.374 2.175 132.404 5.945C135.871 9.195 137.756 13.1817 138.059 17.905H126.229C125.752 15.7817 125.016 14.1783 124.019 13.095C122.329 11.2317 120.011 10.3 117.064 10.3C113.424 10.3 110.607 11.7517 108.614 14.655C106.924 17.2117 106.079 20.57 106.079 24.73C106.079 29.54 107.162 33.2233 109.329 35.78C111.236 38.0333 113.771 39.16 116.934 39.16C120.184 39.16 122.654 37.9683 124.344 35.585C125.254 34.285 125.882 32.3783 126.229 29.865H138.384ZM181.485 1.46V11.47H156.395V19.205H179.34V28.76H156.395V37.99H182.07V48H144.24V1.46H181.485ZM222.986 37.535V48H188.991V1.46H201.146V37.535H222.986ZM263.103 37.535V48H229.108V1.46H241.263V37.535H263.103ZM294.446 1.46L311.866 48H299.256L296.266 39.485H280.146L277.156 48H264.676L282.096 1.46H294.446ZM293.471 30.775L291.261 24.47C289.961 20.6567 288.964 17.1683 288.271 14.005C287.404 17.385 286.342 20.9167 285.086 24.6L282.941 30.775H293.471ZM40.91 90.435H29.34C29.1667 86.6217 26.675 84.715 21.865 84.715C17.6617 84.715 15.56 86.08 15.56 88.81C15.56 90.0667 16.1233 90.9767 17.25 91.54C18.2033 92.0167 21.2583 92.905 26.415 94.205C31.3117 95.4617 34.865 96.7833 37.075 98.17C40.8883 100.51 42.795 104.02 42.795 108.7C42.795 113.813 40.78 117.757 36.75 120.53C33.24 122.957 28.625 124.17 22.905 124.17C15.9717 124.17 10.685 122.502 7.045 119.165C3.83833 116.262 2.19167 112.318 2.105 107.335H14.325C14.585 112.275 17.5967 114.745 23.36 114.745C28.0833 114.745 30.445 113.163 30.445 110C30.445 108.527 29.8167 107.443 28.56 106.75C27.3467 106.013 24.2917 104.952 19.395 103.565C13.4583 101.875 9.47167 100.163 7.435 98.43C5.05167 96.3933 3.86 93.4467 3.86 89.59C3.86 84.9967 5.76667 81.3783 9.58 78.735C12.9167 76.4383 17.185 75.29 22.385 75.29C28.5817 75.29 33.305 76.785 36.555 79.775C39.3717 82.375 40.8233 85.9283 40.91 90.435ZM70.2138 75.29C77.4505 75.29 83.2138 77.8467 87.5038 82.96C91.1872 87.4233 93.0288 93.0133 93.0288 99.73C93.0288 107.487 90.6455 113.64 85.8788 118.19C81.7188 122.177 76.4972 124.17 70.2138 124.17C62.8472 124.17 56.9972 121.613 52.6638 116.5C48.9372 112.08 47.0738 106.49 47.0738 99.73C47.0738 91.9733 49.3705 85.9067 53.9638 81.53C58.3838 77.37 63.8005 75.29 70.2138 75.29ZM70.1488 85.3C66.6388 85.3 63.9088 86.7733 61.9588 89.72C60.2688 92.2333 59.4238 95.5483 59.4238 99.665C59.4238 104.475 60.5072 108.18 62.6738 110.78C64.5805 113.033 67.0938 114.16 70.2138 114.16C73.5072 114.16 76.0855 112.882 77.9488 110.325C79.8122 107.725 80.7438 104.107 80.7438 99.47C80.7438 94.7467 79.6605 91.1283 77.4938 88.615C75.6305 86.405 73.1822 85.3 70.1488 85.3ZM134.001 76.46V86.47H111.771V95.57H131.011V105.06H111.771V123H99.6162V76.46H134.001ZM176.139 76.46V86.925H162.229V123H150.139V86.925H136.294V76.46H176.139ZM240.193 76.46L227.388 123H215.233L211.593 107.335C210.943 104.692 210.293 101.268 209.643 97.065C209.21 94.4217 208.841 92.32 208.538 90.76C208.321 92.1033 207.996 94.1617 207.563 96.935C207.086 100.228 206.458 103.63 205.678 107.14L202.168 123H189.818L177.143 76.46H189.363L192.873 91.475C194.26 97.585 195.343 103.912 196.123 110.455C196.99 103.738 198.073 97.4767 199.373 91.67L202.883 76.46H214.453L217.703 90.76C219.22 97.52 220.368 104.085 221.148 110.455C222.058 103.132 223.271 96.3283 224.788 90.045L227.973 76.46H240.193ZM269.499 76.46L286.919 123H274.309L271.319 114.485H255.199L252.209 123H239.729L257.149 76.46H269.499ZM268.524 105.775L266.314 99.47C265.014 95.6567 264.018 92.1683 263.324 89.005C262.458 92.385 261.396 95.9167 260.139 99.6L257.994 105.775H268.524ZM290.805 76.46H313.75C318.473 76.46 322.07 77.1967 324.54 78.67C328.743 81.14 330.845 84.8883 330.845 89.915C330.845 92.515 330.195 94.8333 328.895 96.87C327.595 98.9067 325.84 100.38 323.63 101.29C325.58 101.81 327.14 102.98 328.31 104.8C329.09 106.013 329.61 107.27 329.87 108.57C330.173 109.827 330.52 112.708 330.91 117.215C331.213 120.075 331.603 121.852 332.08 122.545L332.47 123H320.055C319.665 122.09 319.21 118.84 318.69 113.25C318.343 110.433 317.563 108.483 316.35 107.4C315.136 106.273 313.165 105.71 310.435 105.71H302.96V123H290.805V76.46ZM302.96 86.015V97H311.54C316.436 97 318.885 95.1367 318.885 91.41C318.885 87.8133 316.393 86.015 311.41 86.015H302.96ZM376.866 76.46V86.47H351.776V94.205H374.721V103.76H351.776V112.99H377.451V123H339.621V76.46H376.866ZM39.285 187.535V198H5.29V151.46H17.445V187.535H39.285ZM70.6272 151.46L88.0472 198H75.4372L72.4472 189.485H56.3272L53.3372 198H40.8572L58.2772 151.46H70.6272ZM69.6522 180.775L67.4422 174.47C66.1422 170.657 65.1455 167.168 64.4522 164.005C63.5855 167.385 62.5239 170.917 61.2672 174.6L59.1222 180.775H69.6522ZM92.0625 151.46H114.422C118.972 151.46 122.417 152.045 124.757 153.215C128.744 155.208 130.737 158.523 130.737 163.16C130.737 167.363 128.701 170.505 124.627 172.585C126.447 173.235 127.791 173.907 128.657 174.6C131.517 176.767 132.947 179.93 132.947 184.09C132.947 189.247 130.867 193.082 126.707 195.595C124.064 197.198 120.446 198 115.852 198H92.0625V151.46ZM104.217 160.755V169.79H112.862C116.892 169.79 118.907 168.295 118.907 165.305C118.907 162.272 116.784 160.755 112.537 160.755H104.217ZM104.217 177.72V188.445H113.772C118.366 188.445 120.662 186.668 120.662 183.115C120.662 179.518 118.279 177.72 113.512 177.72H104.217ZM175.163 165.435H163.593C163.42 161.622 160.928 159.715 156.118 159.715C151.915 159.715 149.813 161.08 149.813 163.81C149.813 165.067 150.376 165.977 151.503 166.54C152.456 167.017 155.511 167.905 160.668 169.205C165.565 170.462 169.118 171.783 171.328 173.17C175.141 175.51 177.048 179.02 177.048 183.7C177.048 188.813 175.033 192.757 171.003 195.53C167.493 197.957 162.878 199.17 157.158 199.17C150.225 199.17 144.938 197.502 141.298 194.165C138.091 191.262 136.445 187.318 136.358 182.335H148.578C148.838 187.275 151.85 189.745 157.613 189.745C162.336 189.745 164.698 188.163 164.698 185C164.698 183.527 164.07 182.443 162.813 181.75C161.6 181.013 158.545 179.952 153.648 178.565C147.711 176.875 143.725 175.163 141.688 173.43C139.305 171.393 138.113 168.447 138.113 164.59C138.113 159.997 140.02 156.378 143.833 153.735C147.17 151.438 151.438 150.29 156.638 150.29C162.835 150.29 167.558 151.785 170.808 154.775C173.625 157.375 175.076 160.928 175.163 165.435Z" fill="url(#paint0_linear_571_83)"/>
<defs>
<linearGradient id="paint0_linear_571_83" x1="142.5" y1="-12" x2="277.592" y2="189.862" gradientUnits="userSpaceOnUse">
<stop stop-color="white"/>
<stop offset="1" stop-color="#9C9C9C"/>
</linearGradient>
</defs>
</svg>
