<svg width="312" height="125" viewBox="0 0 312 125" fill="none" xmlns="http://www.w3.org/2000/svg">
<path d="M30.51 1.46L47.93 48H35.32L32.33 39.485H16.21L13.22 48H0.74L18.16 1.46H30.51ZM29.535 30.775L27.325 24.47C26.025 20.6567 25.0283 17.1683 24.335 14.005C23.4683 17.385 22.4067 20.9167 21.15 24.6L19.005 30.775H29.535ZM87.5653 15.435H75.9953C75.8219 11.6217 73.3303 9.715 68.5203 9.715C64.3169 9.715 62.2153 11.08 62.2153 13.81C62.2153 15.0667 62.7786 15.9767 63.9053 16.54C64.8586 17.0167 67.9136 17.905 73.0703 19.205C77.9669 20.4617 81.5203 21.7833 83.7303 23.17C87.5436 25.51 89.4503 29.02 89.4503 33.7C89.4503 38.8133 87.4353 42.7567 83.4053 45.53C79.8953 47.9567 75.2803 49.17 69.5603 49.17C62.6269 49.17 57.3403 47.5017 53.7003 44.165C50.4936 41.2617 48.8469 37.3183 48.7603 32.335H60.9803C61.2403 37.275 64.2519 39.745 70.0153 39.745C74.7386 39.745 77.1003 38.1633 77.1003 35C77.1003 33.5267 76.4719 32.4433 75.2153 31.75C74.0019 31.0133 70.9469 29.9517 66.0503 28.565C60.1136 26.875 56.1269 25.1633 54.0903 23.43C51.7069 21.3933 50.5153 18.4467 50.5153 14.59C50.5153 9.99667 52.4219 6.37833 56.2353 3.735C59.5719 1.43833 63.8403 0.289998 69.0403 0.289998C75.2369 0.289998 79.9603 1.785 83.2103 4.775C86.0269 7.375 87.4786 10.9283 87.5653 15.435ZM138.384 29.865C138.081 34.7183 136.412 38.9 133.379 42.41C129.522 46.9167 124.019 49.17 116.869 49.17C109.242 49.17 103.327 46.5267 99.1241 41.24C95.5274 36.7767 93.7291 31.2517 93.7291 24.665C93.7291 17.8617 95.7874 12.1417 99.9041 7.505C104.194 2.695 109.979 0.289998 117.259 0.289998C123.326 0.289998 128.374 2.175 132.404 5.945C135.871 9.195 137.756 13.1817 138.059 17.905H126.229C125.752 15.7817 125.016 14.1783 124.019 13.095C122.329 11.2317 120.011 10.3 117.064 10.3C113.424 10.3 110.607 11.7517 108.614 14.655C106.924 17.2117 106.079 20.57 106.079 24.73C106.079 29.54 107.162 33.2233 109.329 35.78C111.236 38.0333 113.771 39.16 116.934 39.16C120.184 39.16 122.654 37.9683 124.344 35.585C125.254 34.285 125.882 32.3783 126.229 29.865H138.384ZM181.485 1.46V11.47H156.395V19.205H179.34V28.76H156.395V37.99H182.07V48H144.24V1.46H181.485ZM222.986 37.535V48H188.991V1.46H201.146V37.535H222.986ZM263.103 37.535V48H229.108V1.46H241.263V37.535H263.103ZM294.446 1.46L311.866 48H299.256L296.266 39.485H280.146L277.156 48H264.676L282.096 1.46H294.446ZM293.471 30.775L291.261 24.47C289.961 20.6567 288.964 17.1683 288.271 14.005C287.404 17.385 286.342 20.9167 285.086 24.6L282.941 30.775H293.471ZM39.675 76.46V86.47H17.445V95.57H36.685V105.06H17.445V123H5.29V76.46H39.675ZM66.2783 75.29C73.5149 75.29 79.2783 77.8467 83.5683 82.96C87.2516 87.4233 89.0933 93.0133 89.0933 99.73C89.0933 107.487 86.71 113.64 81.9433 118.19C77.7833 122.177 72.5616 124.17 66.2783 124.17C58.9116 124.17 53.0616 121.613 48.7283 116.5C45.0016 112.08 43.1383 106.49 43.1383 99.73C43.1383 91.9733 45.4349 85.9067 50.0283 81.53C54.4483 77.37 59.8649 75.29 66.2783 75.29ZM66.2133 85.3C62.7033 85.3 59.9733 86.7733 58.0233 89.72C56.3333 92.2333 55.4883 95.5483 55.4883 99.665C55.4883 104.475 56.5716 108.18 58.7383 110.78C60.6449 113.033 63.1583 114.16 66.2783 114.16C69.5716 114.16 72.1499 112.882 74.0133 110.325C75.8766 107.725 76.8083 104.107 76.8083 99.47C76.8083 94.7467 75.7249 91.1283 73.5583 88.615C71.6949 86.405 69.2466 85.3 66.2133 85.3ZM95.5506 76.46H118.496C123.219 76.46 126.816 77.1967 129.286 78.67C133.489 81.14 135.591 84.8883 135.591 89.915C135.591 92.515 134.941 94.8333 133.641 96.87C132.341 98.9067 130.586 100.38 128.376 101.29C130.326 101.81 131.886 102.98 133.056 104.8C133.836 106.013 134.356 107.27 134.616 108.57C134.919 109.827 135.266 112.708 135.656 117.215C135.959 120.075 136.349 121.852 136.826 122.545L137.216 123H124.801C124.411 122.09 123.956 118.84 123.436 113.25C123.089 110.433 122.309 108.483 121.096 107.4C119.882 106.273 117.911 105.71 115.181 105.71H107.706V123H95.5506V76.46ZM107.706 86.015V97H116.286C121.182 97 123.631 95.1367 123.631 91.41C123.631 87.8133 121.139 86.015 116.156 86.015H107.706ZM187.137 97.715V123H179.337C178.904 121.007 178.687 119.577 178.687 118.71C178.687 118.623 178.687 118.515 178.687 118.385C178.687 118.212 178.687 118.06 178.687 117.93C175.394 122.09 170.735 124.17 164.712 124.17C157.562 124.17 151.907 121.635 147.747 116.565C144.15 112.145 142.352 106.577 142.352 99.86C142.352 92.06 144.822 85.8633 149.762 81.27C154.052 77.2833 159.447 75.29 165.947 75.29C171.84 75.29 176.737 77.0667 180.637 80.62C184.017 83.6967 185.945 87.575 186.422 92.255H174.657C173.617 87.6183 170.649 85.3 165.752 85.3C162.199 85.3 159.469 86.5783 157.562 89.135C155.655 91.6483 154.702 95.2667 154.702 99.99C154.702 109.437 158.559 114.16 166.272 114.16C171.949 114.16 175.199 111.56 176.022 106.36H167.572V97.715H187.137ZM232.266 76.46V86.47H207.176V94.205H230.121V103.76H207.176V112.99H232.851V123H195.021V76.46H232.266Z" fill="url(#paint0_linear_571_294)"/>
<defs>
<linearGradient id="paint0_linear_571_294" x1="1" y1="63" x2="314" y2="63" gradientUnits="userSpaceOnUse">
<stop stop-color="white"/>
<stop offset="1" stop-color="#9C9C9C"/>
</linearGradient>
</defs>
</svg>
