<svg width="152" height="34" viewBox="0 0 152 34" fill="none" xmlns="http://www.w3.org/2000/svg">
<path d="M15.3906 0C22.3366 0 28.207 4.8138 30.1221 11.4258H22.1436C20.7367 8.93136 18.239 7.27148 15.3906 7.27148C10.9941 7.27172 7.42969 11.2245 7.42969 16.1006C7.4299 20.9764 10.9943 24.9295 15.3906 24.9297C18.2392 24.9297 20.7368 23.2692 22.1436 20.7744H16.6191V14.542H30.1221V20.7744C28.2071 27.3865 22.3367 32.2002 15.3906 32.2002C6.89072 32.2 0.000225664 24.9921 0 16.1006C0 7.20887 6.89058 0.000237235 15.3906 0Z" fill="white"/>
<path d="M77.0615 0C85.3797 6.88685e-05 92.123 7.20876 92.123 16.1006C92.1228 24.9922 85.3795 32.2001 77.0615 32.2002C68.7435 32.2002 62.0002 24.9923 62 16.1006C62 7.20872 68.7433 0 77.0615 0ZM77.0615 6.23242C72.1853 6.23242 68.2324 10.6507 68.2324 16.1006C68.2326 21.5502 72.1855 25.9678 77.0615 25.9678C81.9375 25.9677 85.8904 21.5502 85.8906 16.1006C85.8906 10.6508 81.9376 6.23254 77.0615 6.23242Z" fill="white"/>
<path d="M119.93 21.2002C119.93 27.2752 115.005 32.1999 108.93 32.2002H106C99.9249 32.2002 95 27.2753 95 21.2002V0H101.232V19.7354C101.232 23.1774 104.023 25.9678 107.465 25.9678C110.907 25.9677 113.697 23.1773 113.697 19.7354V0H119.93V21.2002Z" fill="white"/>
<path d="M49.8857 0.00976562C51.7811 0.0908194 53.6197 0.696886 55.1943 1.76367C56.8718 2.90018 58.1751 4.50884 58.9385 6.38574C59.7018 8.26257 59.8913 10.324 59.4834 12.3086C59.0753 14.2933 58.0874 16.1126 56.6455 17.5361L52.3574 13.1924C52.9401 12.6171 53.3389 11.8821 53.5039 11.0801C53.6689 10.2778 53.5927 9.44426 53.2842 8.68555C52.9756 7.92683 52.4486 7.2768 51.7705 6.81738C51.2055 6.43462 50.5564 6.20099 49.8818 6.12988H35V0H49.8857V0.00976562Z" fill="white"/>
<path d="M41.1299 12.6329L41.6123 12.6896C46.5847 13.3279 51.2319 15.5261 54.8828 18.9738C58.6516 22.5328 61.1514 27.2282 62 32.3419L55.3428 33.4464C54.7355 29.787 52.947 26.4269 50.25 23.88C47.7298 21.5 44.5459 19.9523 41.1299 19.4357V31.5236H35V12.6095H41.1299V12.6329Z" fill="white"/>
<path d="M131.474 32H125V12.0234H131.474V32ZM140.723 0.0107422C143.246 0.118668 145.657 1.10618 147.533 2.80957C149.508 4.60248 150.752 7.06154 151.024 9.71484C151.297 12.3681 150.58 15.0285 149.011 17.1855C147.442 19.3425 145.132 20.8444 142.523 21.4023L141.175 15.0977C142.229 14.8721 143.164 14.2655 143.798 13.3936C144.432 12.5218 144.721 11.4463 144.611 10.374C144.501 9.3015 143.998 8.30677 143.2 7.58203C142.51 6.95585 141.642 6.56941 140.723 6.47168V6.47363H125V0H140.723V0.0107422Z" fill="white"/>
</svg>
