<svg width="376" height="125" viewBox="0 0 376 125" fill="none" xmlns="http://www.w3.org/2000/svg">
<path d="M38.91 15.435H27.34C27.1667 11.6217 24.675 9.715 19.865 9.715C15.6617 9.715 13.56 11.08 13.56 13.81C13.56 15.0667 14.1233 15.9767 15.25 16.54C16.2033 17.0167 19.2583 17.905 24.415 19.205C29.3117 20.4617 32.865 21.7833 35.075 23.17C38.8883 25.51 40.795 29.02 40.795 33.7C40.795 38.8133 38.78 42.7567 34.75 45.53C31.24 47.9567 26.625 49.17 20.905 49.17C13.9717 49.17 8.685 47.5017 5.045 44.165C1.83833 41.2617 0.191667 37.3183 0.105 32.335H12.325C12.585 37.275 15.5967 39.745 21.36 39.745C26.0833 39.745 28.445 38.1633 28.445 35C28.445 33.5267 27.8167 32.4433 26.56 31.75C25.3467 31.0133 22.2917 29.9517 17.395 28.565C11.4583 26.875 7.47167 25.1633 5.435 23.43C3.05167 21.3933 1.86 18.4467 1.86 14.59C1.86 9.99667 3.76667 6.37833 7.58 3.735C10.9167 1.43833 15.185 0.289998 20.385 0.289998C26.5817 0.289998 31.305 1.785 34.555 4.775C37.3717 7.375 38.8233 10.9283 38.91 15.435ZM68.2138 0.289998C75.4505 0.289998 81.2138 2.84666 85.5038 7.96C89.1872 12.4233 91.0288 18.0133 91.0288 24.73C91.0288 32.4867 88.6455 38.64 83.8788 43.19C79.7188 47.1767 74.4972 49.17 68.2138 49.17C60.8472 49.17 54.9972 46.6133 50.6638 41.5C46.9372 37.08 45.0738 31.49 45.0738 24.73C45.0738 16.9733 47.3705 10.9067 51.9638 6.53C56.3838 2.37 61.8005 0.289998 68.2138 0.289998ZM68.1488 10.3C64.6388 10.3 61.9088 11.7733 59.9588 14.72C58.2688 17.2333 57.4238 20.5483 57.4238 24.665C57.4238 29.475 58.5072 33.18 60.6738 35.78C62.5805 38.0333 65.0938 39.16 68.2138 39.16C71.5072 39.16 74.0855 37.8817 75.9488 35.325C77.8122 32.725 78.7438 29.1067 78.7438 24.47C78.7438 19.7467 77.6605 16.1283 75.4938 13.615C73.6305 11.405 71.1822 10.3 68.1488 10.3ZM132.001 1.46V11.47H109.771V20.57H129.011V30.06H109.771V48H97.6162V1.46H132.001ZM174.139 1.46V11.925H160.229V48H148.139V11.925H134.294V1.46H174.139ZM238.193 1.46L225.388 48H213.233L209.593 32.335C208.943 29.6917 208.293 26.2683 207.643 22.065C207.21 19.4217 206.841 17.32 206.538 15.76C206.321 17.1033 205.996 19.1617 205.563 21.935C205.086 25.2283 204.458 28.63 203.678 32.14L200.168 48H187.818L175.143 1.46H187.363L190.873 16.475C192.26 22.585 193.343 28.9117 194.123 35.455C194.99 28.7383 196.073 22.4767 197.373 16.67L200.883 1.46H212.453L215.703 15.76C217.22 22.52 218.368 29.085 219.148 35.455C220.058 28.1317 221.271 21.3283 222.788 15.045L225.973 1.46H238.193ZM267.499 1.46L284.919 48H272.309L269.319 39.485H253.199L250.209 48H237.729L255.149 1.46H267.499ZM266.524 30.775L264.314 24.47C263.014 20.6567 262.018 17.1683 261.324 14.005C260.458 17.385 259.396 20.9167 258.139 24.6L255.994 30.775H266.524ZM288.805 1.46H311.75C316.473 1.46 320.07 2.19666 322.54 3.67C326.743 6.14 328.845 9.88833 328.845 14.915C328.845 17.515 328.195 19.8333 326.895 21.87C325.595 23.9067 323.84 25.38 321.63 26.29C323.58 26.81 325.14 27.98 326.31 29.8C327.09 31.0133 327.61 32.27 327.87 33.57C328.173 34.8267 328.52 37.7083 328.91 42.215C329.213 45.075 329.603 46.8517 330.08 47.545L330.47 48H318.055C317.665 47.09 317.21 43.84 316.69 38.25C316.343 35.4333 315.563 33.4833 314.35 32.4C313.136 31.2733 311.165 30.71 308.435 30.71H300.96V48H288.805V1.46ZM300.96 11.015V22H309.54C314.436 22 316.885 20.1367 316.885 16.41C316.885 12.8133 314.393 11.015 309.41 11.015H300.96ZM374.866 1.46V11.47H349.776V19.205H372.721V28.76H349.776V37.99H375.451V48H337.621V1.46H374.866ZM37.285 112.535V123H3.29V76.46H15.445V112.535H37.285ZM68.6272 76.46L86.0472 123H73.4372L70.4472 114.485H54.3272L51.3372 123H38.8572L56.2772 76.46H68.6272ZM67.6522 105.775L65.4422 99.47C64.1422 95.6567 63.1455 92.1683 62.4522 89.005C61.5855 92.385 60.5239 95.9167 59.2672 99.6L57.1222 105.775H67.6522ZM90.0625 76.46H112.422C116.972 76.46 120.417 77.045 122.757 78.215C126.744 80.2083 128.737 83.5233 128.737 88.16C128.737 92.3633 126.701 95.505 122.627 97.585C124.447 98.235 125.791 98.9067 126.657 99.6C129.517 101.767 130.947 104.93 130.947 109.09C130.947 114.247 128.867 118.082 124.707 120.595C122.064 122.198 118.446 123 113.852 123H90.0625V76.46ZM102.217 85.755V94.79H110.862C114.892 94.79 116.907 93.295 116.907 90.305C116.907 87.2717 114.784 85.755 110.537 85.755H102.217ZM102.217 102.72V113.445H111.772C116.366 113.445 118.662 111.668 118.662 108.115C118.662 104.518 116.279 102.72 111.512 102.72H102.217ZM173.163 90.435H161.593C161.42 86.6217 158.928 84.715 154.118 84.715C149.915 84.715 147.813 86.08 147.813 88.81C147.813 90.0667 148.376 90.9767 149.503 91.54C150.456 92.0167 153.511 92.905 158.668 94.205C163.565 95.4617 167.118 96.7833 169.328 98.17C173.141 100.51 175.048 104.02 175.048 108.7C175.048 113.813 173.033 117.757 169.003 120.53C165.493 122.957 160.878 124.17 155.158 124.17C148.225 124.17 142.938 122.502 139.298 119.165C136.091 116.262 134.445 112.318 134.358 107.335H146.578C146.838 112.275 149.85 114.745 155.613 114.745C160.336 114.745 162.698 113.163 162.698 110C162.698 108.527 162.07 107.443 160.813 106.75C159.6 106.013 156.545 104.952 151.648 103.565C145.711 101.875 141.725 100.163 139.688 98.43C137.305 96.3933 136.113 93.4467 136.113 89.59C136.113 84.9967 138.02 81.3783 141.833 78.735C145.17 76.4383 149.438 75.29 154.638 75.29C160.835 75.29 165.558 76.785 168.808 79.775C171.625 82.375 173.076 85.9283 173.163 90.435Z" fill="url(#paint0_linear_571_83)"/>
<defs>
<linearGradient id="paint0_linear_571_83" x1="140.5" y1="-12" x2="213" y2="150.5" gradientUnits="userSpaceOnUse">
<stop stop-color="white"/>
<stop offset="1" stop-color="#9C9C9C"/>
</linearGradient>
</defs>
</svg>
